# xmcd
#
# Track frame offsets:
#	150
#	25405
#	43905
#	67017
#	92270
#	111155
#
# Disc length: 1550 seconds
#
# Revision: 4
# Processed by: cddbd v1.5PL3 Copyright (c) Steve Scherf et al.
# Submitted via: CDex 1.50Beta5
#
DISCID=4b060c06
DTITLE=大橋純子 - 微笑むための勇気
DYEAR=2002
DGENRE=Pop
TTITLE0=微笑むための勇気
TTITLE1=たそがれマイ・ラブ〜Mocha・Java Version〜
TTITLE2=Adieu Mon Amour
TTITLE3=微笑むための勇気 Instrumental
TTITLE4=たそがれマイ・ラブ〜Mocha・Java Version〜 Instrumental
TTITLE5=Dear Angel〜CM Vesion
EXTD=
EXTT0=
EXTT1=
EXTT2=
EXTT3=
EXTT4=
EXTT5=
PLAYORDER=
